<svg xmlns="http://www.w3.org/2000/svg" xmlns:xlink="http://www.w3.org/1999/xlink" width="500" zoomAndPan="magnify" viewBox="0 0 375 374.999991" height="500" preserveAspectRatio="xMidYMid meet" version="1.0"><defs><g/><clipPath id="1e9986dd14"><path d="M 68 152.875 L 132.808594 152.875 L 132.808594 212.875 L 68 212.875 Z M 68 152.875 " clip-rule="nonzero"/></clipPath><clipPath id="4a7fafb260"><path d="M 56.378906 165 L 78 165 L 78 200 L 56.378906 200 Z M 56.378906 165 " clip-rule="nonzero"/></clipPath></defs><g clip-path="url(#1e9986dd14)"><path fill="#ffffff" d="M 70.339844 202.324219 L 108.960938 202.324219 C 110.753906 202.324219 112.269531 200.980469 112.511719 199.210938 L 117.21875 163.683594 C 117.21875 163.683594 117.21875 163.683594 117.21875 163.667969 C 118.007812 157.515625 123.261719 152.859375 129.441406 152.859375 L 130.367188 152.859375 C 131.628906 152.859375 132.644531 153.882812 132.644531 155.148438 C 132.644531 156.414062 131.628906 157.4375 130.367188 157.4375 L 129.441406 157.4375 C 125.539062 157.4375 122.230469 160.371094 121.730469 164.261719 C 121.730469 164.261719 121.730469 164.261719 121.730469 164.277344 L 117.023438 199.804688 C 116.492188 203.851562 113.03125 206.902344 108.960938 206.902344 L 107.59375 206.902344 C 107.550781 210.230469 104.878906 212.917969 101.550781 212.917969 C 98.226562 212.917969 95.554688 210.230469 95.511719 206.902344 L 86.066406 206.902344 C 86.023438 210.230469 83.347656 212.917969 80.023438 212.917969 C 76.699219 212.917969 74.027344 210.230469 73.984375 206.902344 L 70.339844 206.902344 C 69.078125 206.902344 68.0625 205.882812 68.0625 204.613281 C 68.0625 203.347656 69.078125 202.324219 70.339844 202.324219 Z M 70.339844 202.324219 " fill-opacity="1" fill-rule="nonzero"/></g><path fill="#77bf3f" d="M 83.972656 163.378906 L 91.488281 162.460938 C 94.355469 167.070312 100.582031 175.011719 111.601562 179.742188 L 109.507812 195.484375 C 93.945312 186.460938 86.417969 169.835938 83.972656 163.378906 Z M 83.972656 163.378906 " fill-opacity="1" fill-rule="nonzero"/><path fill="#50b948" d="M 79.3125 163.941406 C 81.453125 170.078125 89.148438 188.796875 106.5625 199.117188 L 82.667969 199.117188 C 74.652344 185.027344 72.675781 169.621094 72.222656 164.796875 Z M 79.3125 163.941406 " fill-opacity="1" fill-rule="nonzero"/><path fill="#fbcc06" d="M 112.242188 175.011719 C 104.316406 171.300781 99.320312 165.789062 96.558594 161.851562 L 111.359375 160.0625 C 112.058594 159.972656 112.757812 160.230469 113.257812 160.734375 C 113.757812 161.238281 113.984375 161.941406 113.894531 162.644531 Z M 112.242188 175.011719 " fill-opacity="1" fill-rule="nonzero"/><g clip-path="url(#4a7fafb260)"><path fill="#38a34a" d="M 57.175781 167.300781 C 57.554688 166.8125 58.101562 166.507812 58.710938 166.429688 L 67.710938 165.347656 C 68.167969 170.460938 70.035156 185.011719 77.460938 199.117188 L 68.078125 199.117188 C 63.886719 199.117188 60.304688 195.972656 59.757812 191.789062 L 56.75 169.011719 C 56.628906 168.398438 56.796875 167.789062 57.175781 167.300781 Z M 57.175781 167.300781 " fill-opacity="1" fill-rule="nonzero"/></g><g fill="#ffffff" fill-opacity="1"><g transform="translate(139.448549, 181.499988)"><g><path d="M 17.195312 -12.664062 C 18.875 -13.832031 19.90625 -15.753906 19.90625 -17.8125 C 19.90625 -21.347656 16.816406 -23.988281 12.664062 -23.988281 L 2.746094 -23.988281 L 2.746094 0.0351562 L 12.9375 0.0351562 C 17.125 0.0351562 20.523438 -3.054688 20.523438 -6.898438 C 20.523438 -9.472656 19.289062 -11.53125 17.195312 -12.664062 Z M 14.859375 -17.023438 C 14.859375 -15.511719 13.796875 -14.449219 12.183594 -14.449219 L 7.824219 -14.449219 L 7.824219 -19.5625 L 12.183594 -19.5625 C 13.796875 -19.5625 14.859375 -18.53125 14.859375 -17.023438 Z M 12.457031 -4.734375 L 7.824219 -4.734375 L 7.824219 -10.125 L 12.457031 -10.125 C 14.175781 -10.125 15.308594 -8.992188 15.308594 -7.449219 C 15.308594 -5.867188 14.175781 -4.734375 12.457031 -4.734375 Z M 12.457031 -4.734375 "/></g></g></g><g fill="#ffffff" fill-opacity="1"><g transform="translate(161.477131, 181.499988)"><g><path d="M 20.386719 -9.300781 C 20.386719 -14.65625 16.472656 -19.046875 10.777344 -19.046875 C 5.285156 -19.046875 1.167969 -14.828125 1.167969 -9.265625 C 1.167969 -3.707031 5.320312 0.550781 10.777344 0.550781 C 15.101562 0.550781 18.636719 -2.023438 19.972656 -6.074219 L 14.722656 -6.074219 C 13.96875 -4.734375 12.527344 -3.914062 10.777344 -3.914062 C 8.339844 -3.914062 6.691406 -5.320312 6.246094 -7.859375 L 20.28125 -7.859375 C 20.351562 -8.339844 20.386719 -8.820312 20.386719 -9.300781 Z M 10.777344 -14.757812 C 13.042969 -14.757812 14.65625 -13.523438 15.375 -11.257812 L 6.382812 -11.257812 C 6.96875 -13.453125 8.546875 -14.757812 10.777344 -14.757812 Z M 10.777344 -14.757812 "/></g></g></g><g fill="#ffffff" fill-opacity="1"><g transform="translate(183.025336, 181.499988)"><g><path d="M 11.460938 -4.460938 C 9.609375 -4.460938 8.578125 -5.492188 8.578125 -7.277344 L 8.578125 -14.484375 L 13.625 -14.484375 L 13.625 -18.53125 L 8.511719 -18.53125 L 8.511719 -23.335938 L 7.550781 -23.335938 L 0.242188 -15.582031 L 0.242188 -14.484375 L 3.570312 -14.484375 L 3.570312 -6.589844 C 3.570312 -2.503906 6.074219 0 10.160156 0 L 13.726562 0 L 13.726562 -4.460938 Z M 11.460938 -4.460938 "/></g></g></g><g fill="#ffffff" fill-opacity="1"><g transform="translate(197.779677, 181.499988)"><g><path d="M 17.503906 -18.53125 L 16.988281 -16.78125 C 15.375 -18.191406 13.28125 -19.046875 10.878906 -19.046875 C 5.320312 -19.046875 1.167969 -14.859375 1.167969 -9.265625 C 1.167969 -3.671875 5.320312 0.550781 10.878906 0.550781 C 13.246094 0.550781 15.308594 -0.273438 16.886719 -1.683594 L 17.332031 0 L 21.242188 0 L 21.242188 -18.53125 Z M 11.292969 -4.1875 C 8.375 -4.1875 6.246094 -6.382812 6.246094 -9.265625 C 6.246094 -12.183594 8.375 -14.347656 11.292969 -14.347656 C 14.207031 -14.347656 16.335938 -12.183594 16.335938 -9.265625 C 16.335938 -6.347656 14.207031 -4.1875 11.292969 -4.1875 Z M 11.292969 -4.1875 "/></g></g></g><g fill="#ffffff" fill-opacity="1"><g transform="translate(221.455247, 181.499988)"><g><path d="M 23.476562 -18.945312 C 21.105469 -18.945312 19.011719 -17.777344 17.742188 -15.992188 C 16.644531 -17.847656 14.722656 -18.945312 12.355469 -18.945312 C 10.160156 -18.945312 8.132812 -17.878906 6.828125 -16.234375 L 5.902344 -18.53125 L 2.402344 -18.53125 L 2.402344 0 L 7.414062 0 L 7.414062 -10.019531 C 7.414062 -12.90625 8.75 -14.550781 11.015625 -14.550781 C 12.800781 -14.550781 13.761719 -13.246094 13.761719 -10.777344 L 13.761719 0 L 18.636719 0 L 18.636719 -10.019531 C 18.636719 -12.90625 19.972656 -14.550781 22.203125 -14.550781 C 24.023438 -14.550781 24.984375 -13.246094 24.984375 -10.777344 L 24.984375 0 L 29.996094 0 L 29.996094 -11.601562 C 29.996094 -15.957031 27.320312 -18.945312 23.476562 -18.945312 Z M 23.476562 -18.945312 "/></g></g></g><g fill="#ffffff" fill-opacity="1"><g transform="translate(253.640299, 181.499988)"><g><path d="M 11.1875 0.550781 C 16.917969 0.550781 21.210938 -3.671875 21.210938 -9.265625 C 21.210938 -14.859375 16.917969 -19.046875 11.1875 -19.046875 C 5.457031 -19.046875 1.167969 -14.859375 1.167969 -9.265625 C 1.167969 -3.671875 5.457031 0.550781 11.1875 0.550781 Z M 11.1875 -4.1875 C 8.304688 -4.1875 6.246094 -6.246094 6.246094 -9.265625 C 6.246094 -12.253906 8.304688 -14.347656 11.1875 -14.347656 C 14.070312 -14.347656 16.128906 -12.253906 16.128906 -9.265625 C 16.128906 -6.246094 14.070312 -4.1875 11.1875 -4.1875 Z M 11.1875 -4.1875 "/></g></g></g><g fill="#ffffff" fill-opacity="1"><g transform="translate(276.046308, 181.499988)"><g><path d="M 15.203125 -18.53125 L 10.570312 -7.105469 L 5.628906 -18.53125 L 0.171875 -18.53125 L 8.03125 -1.40625 L 7.960938 -1.269531 C 6.828125 1.542969 6.210938 2.195312 3.773438 2.195312 L 2.058594 2.195312 L 2.058594 6.691406 L 4.117188 6.691406 C 8.269531 6.691406 10.226562 4.804688 12.457031 -0.242188 L 20.523438 -18.53125 Z M 15.203125 -18.53125 "/></g></g></g><g fill="#ffffff" fill-opacity="1"><g transform="translate(296.702389, 181.499988)"><g><path d="M 10.84375 0.550781 C 16.097656 0.550781 19.5625 -2.8125 19.5625 -7.824219 L 19.5625 -18.53125 L 14.550781 -18.53125 L 14.550781 -8.375 C 14.550781 -5.765625 13.179688 -4.1875 10.84375 -4.1875 C 8.546875 -4.1875 7.136719 -5.730469 7.136719 -8.375 L 7.136719 -18.53125 L 2.128906 -18.53125 L 2.128906 -7.824219 C 2.128906 -2.8125 5.628906 0.550781 10.84375 0.550781 Z M 10.84375 0.550781 "/></g></g></g><g fill="#ffffff" fill-opacity="1"><g transform="translate(318.422152, 181.499988)"><g><path d="M 15.203125 -18.53125 L 10.570312 -7.105469 L 5.628906 -18.53125 L 0.171875 -18.53125 L 8.03125 -1.40625 L 7.960938 -1.269531 C 6.828125 1.542969 6.210938 2.195312 3.773438 2.195312 L 2.058594 2.195312 L 2.058594 6.691406 L 4.117188 6.691406 C 8.269531 6.691406 10.226562 4.804688 12.457031 -0.242188 L 20.523438 -18.53125 Z M 15.203125 -18.53125 "/></g></g></g><g fill="#ffffff" fill-opacity="1"><g transform="translate(139.448549, 212.249986)"><g><path d="M 32.15625 0 L 28.453125 -24.023438 L 23.234375 -24.023438 L 16.714844 -9.265625 L 10.191406 -24.023438 L 5.011719 -24.023438 L 1.234375 0 L 6.519531 0 L 8.890625 -15.648438 L 16.0625 -0.0351562 L 17.332031 -0.0351562 L 24.503906 -15.648438 L 26.871094 0 Z M 32.15625 0 "/></g></g></g><g fill="#ffffff" fill-opacity="1"><g transform="translate(172.903163, 212.249986)"><g><path d="M 17.503906 -18.53125 L 16.988281 -16.78125 C 15.375 -18.191406 13.28125 -19.046875 10.878906 -19.046875 C 5.320312 -19.046875 1.167969 -14.859375 1.167969 -9.265625 C 1.167969 -3.671875 5.320312 0.550781 10.878906 0.550781 C 13.246094 0.550781 15.308594 -0.273438 16.886719 -1.683594 L 17.332031 0 L 21.242188 0 L 21.242188 -18.53125 Z M 11.292969 -4.1875 C 8.375 -4.1875 6.246094 -6.382812 6.246094 -9.265625 C 6.246094 -12.183594 8.375 -14.347656 11.292969 -14.347656 C 14.207031 -14.347656 16.335938 -12.183594 16.335938 -9.265625 C 16.335938 -6.347656 14.207031 -4.1875 11.292969 -4.1875 Z M 11.292969 -4.1875 "/></g></g></g><g fill="#ffffff" fill-opacity="1"><g transform="translate(196.578733, 212.249986)"><g><path d="M 11.875 -18.636719 C 9.472656 -18.636719 7.824219 -17.878906 6.488281 -16.234375 L 5.59375 -18.53125 L 2.402344 -18.53125 L 2.402344 0 L 7.414062 0 L 7.414062 -9.609375 C 7.414062 -12.628906 8.511719 -13.898438 11.324219 -13.898438 L 13.523438 -13.898438 L 13.523438 -18.636719 Z M 11.875 -18.636719 "/></g></g></g><g fill="#ffffff" fill-opacity="1"><g transform="translate(210.543889, 212.249986)"><g><path d="M 19.390625 0 L 12.457031 -9.679688 L 18.738281 -18.53125 L 12.972656 -18.53125 L 7.414062 -10.296875 L 7.414062 -25.191406 L 2.402344 -25.191406 L 2.402344 0 L 7.414062 0 L 7.414062 -8.855469 L 13.316406 0 Z M 19.390625 0 "/></g></g></g><g fill="#ffffff" fill-opacity="1"><g transform="translate(229.793159, 212.249986)"><g><path d="M 20.386719 -9.300781 C 20.386719 -14.65625 16.472656 -19.046875 10.777344 -19.046875 C 5.285156 -19.046875 1.167969 -14.828125 1.167969 -9.265625 C 1.167969 -3.707031 5.320312 0.550781 10.777344 0.550781 C 15.101562 0.550781 18.636719 -2.023438 19.972656 -6.074219 L 14.722656 -6.074219 C 13.96875 -4.734375 12.527344 -3.914062 10.777344 -3.914062 C 8.339844 -3.914062 6.691406 -5.320312 6.246094 -7.859375 L 20.28125 -7.859375 C 20.351562 -8.339844 20.386719 -8.820312 20.386719 -9.300781 Z M 10.777344 -14.757812 C 13.042969 -14.757812 14.65625 -13.523438 15.375 -11.257812 L 6.382812 -11.257812 C 6.96875 -13.453125 8.546875 -14.757812 10.777344 -14.757812 Z M 10.777344 -14.757812 "/></g></g></g><g fill="#ffffff" fill-opacity="1"><g transform="translate(251.341364, 212.249986)"><g><path d="M 11.460938 -4.460938 C 9.609375 -4.460938 8.578125 -5.492188 8.578125 -7.277344 L 8.578125 -14.484375 L 13.625 -14.484375 L 13.625 -18.53125 L 8.511719 -18.53125 L 8.511719 -23.335938 L 7.550781 -23.335938 L 0.242188 -15.582031 L 0.242188 -14.484375 L 3.570312 -14.484375 L 3.570312 -6.589844 C 3.570312 -2.503906 6.074219 0 10.160156 0 L 13.726562 0 L 13.726562 -4.460938 Z M 11.460938 -4.460938 "/></g></g></g></svg>