<svg xmlns="http://www.w3.org/2000/svg" xmlns:xlink="http://www.w3.org/1999/xlink" width="300" zoomAndPan="magnify" viewBox="0 0 224.87999 63.749997" height="85" preserveAspectRatio="xMidYMid meet" version="1.0"><defs><clipPath id="9a54367f0d"><path d="M 29.890625 7.070312 L 73.660156 7.070312 L 73.660156 47.589844 L 29.890625 47.589844 Z M 29.890625 7.070312 " clip-rule="nonzero"/></clipPath><clipPath id="b168459288"><path d="M 22.042969 15.257812 L 36.644531 15.257812 L 36.644531 38.894531 L 22.042969 38.894531 Z M 22.042969 15.257812 " clip-rule="nonzero"/></clipPath></defs><g clip-path="url(#9a54367f0d)"><path fill="#ffffff" d="M 31.46875 40.464844 L 57.554688 40.464844 C 58.765625 40.464844 59.789062 39.558594 59.949219 38.363281 L 63.128906 14.371094 C 63.128906 14.371094 63.128906 14.371094 63.128906 14.359375 C 63.664062 10.203125 67.210938 7.058594 71.382812 7.058594 L 72.007812 7.058594 C 72.863281 7.058594 73.546875 7.75 73.546875 8.605469 C 73.546875 9.460938 72.863281 10.152344 72.007812 10.152344 L 71.382812 10.152344 C 68.75 10.152344 66.515625 12.132812 66.175781 14.761719 C 66.175781 14.761719 66.175781 14.761719 66.175781 14.769531 L 62.996094 38.765625 C 62.640625 41.496094 60.300781 43.558594 57.554688 43.558594 L 56.628906 43.558594 C 56.601562 45.804688 54.796875 47.621094 52.546875 47.621094 C 50.304688 47.621094 48.5 45.804688 48.46875 43.558594 L 42.089844 43.558594 C 42.0625 45.804688 40.253906 47.621094 38.011719 47.621094 C 35.765625 47.621094 33.960938 45.804688 33.929688 43.558594 L 31.46875 43.558594 C 30.617188 43.558594 29.933594 42.867188 29.933594 42.011719 C 29.933594 41.15625 30.617188 40.464844 31.46875 40.464844 Z M 31.46875 40.464844 " fill-opacity="1" fill-rule="nonzero"/></g><path fill="#77bf3f" d="M 40.675781 14.164062 L 45.753906 13.542969 C 47.6875 16.65625 51.894531 22.019531 59.335938 25.214844 L 57.921875 35.847656 C 47.410156 29.753906 42.328125 18.523438 40.675781 14.164062 Z M 40.675781 14.164062 " fill-opacity="1" fill-rule="nonzero"/><path fill="#50b948" d="M 37.53125 14.542969 C 38.976562 18.6875 44.171875 31.328125 55.933594 38.300781 L 39.796875 38.300781 C 34.382812 28.785156 33.046875 18.378906 32.742188 15.121094 Z M 37.53125 14.542969 " fill-opacity="1" fill-rule="nonzero"/><path fill="#fbcc06" d="M 59.769531 22.019531 C 54.417969 19.515625 51.042969 15.792969 49.175781 13.132812 L 59.171875 11.925781 C 59.644531 11.863281 60.117188 12.039062 60.453125 12.378906 C 60.792969 12.71875 60.945312 13.191406 60.882812 13.667969 Z M 59.769531 22.019531 " fill-opacity="1" fill-rule="nonzero"/><g clip-path="url(#b168459288)"><path fill="#38a34a" d="M 22.578125 16.8125 C 22.835938 16.484375 23.203125 16.277344 23.617188 16.222656 L 29.695312 15.492188 C 30.003906 18.945312 31.265625 28.773438 36.277344 38.300781 L 29.941406 38.300781 C 27.113281 38.300781 24.691406 36.175781 24.324219 33.351562 L 22.292969 17.96875 C 22.210938 17.554688 22.324219 17.140625 22.578125 16.8125 Z M 22.578125 16.8125 " fill-opacity="1" fill-rule="nonzero"/></g><path fill="#ffffff" d="M 89.753906 17.847656 C 90.890625 17.058594 91.585938 15.761719 91.585938 14.371094 C 91.585938 11.984375 89.5 10.203125 86.695312 10.203125 L 79.996094 10.203125 L 79.996094 26.425781 L 86.878906 26.425781 C 89.707031 26.425781 92.003906 24.339844 92.003906 21.742188 C 92.003906 20.003906 91.167969 18.613281 89.753906 17.847656 Z M 88.179688 14.90625 C 88.179688 15.925781 87.460938 16.644531 86.371094 16.644531 L 83.425781 16.644531 L 83.425781 13.191406 L 86.371094 13.191406 C 87.460938 13.191406 88.179688 13.886719 88.179688 14.90625 Z M 86.554688 23.203125 L 83.425781 23.203125 L 83.425781 19.5625 L 86.554688 19.5625 C 87.714844 19.5625 88.480469 20.328125 88.480469 21.371094 C 88.480469 22.441406 87.714844 23.203125 86.554688 23.203125 Z M 86.554688 23.203125 " fill-opacity="1" fill-rule="nonzero"/><path fill="#ffffff" d="M 106.789062 20.121094 C 106.789062 16.503906 104.144531 13.539062 100.296875 13.539062 C 96.589844 13.539062 93.808594 16.386719 93.808594 20.144531 C 93.808594 23.898438 96.613281 26.773438 100.296875 26.773438 C 103.21875 26.773438 105.605469 25.035156 106.507812 22.300781 L 102.960938 22.300781 C 102.453125 23.203125 101.480469 23.757812 100.296875 23.757812 C 98.652344 23.757812 97.539062 22.808594 97.238281 21.09375 L 106.714844 21.09375 C 106.765625 20.769531 106.789062 20.445312 106.789062 20.121094 Z M 100.296875 16.433594 C 101.828125 16.433594 102.917969 17.269531 103.402344 18.800781 L 97.332031 18.800781 C 97.726562 17.316406 98.792969 16.433594 100.296875 16.433594 Z M 100.296875 16.433594 " fill-opacity="1" fill-rule="nonzero"/><path fill="#ffffff" d="M 115.3125 23.390625 C 114.0625 23.390625 113.367188 22.691406 113.367188 21.488281 L 113.367188 16.621094 L 116.773438 16.621094 L 116.773438 13.886719 L 113.320312 13.886719 L 113.320312 10.640625 L 112.671875 10.640625 L 107.734375 15.878906 L 107.734375 16.621094 L 109.984375 16.621094 L 109.984375 21.953125 C 109.984375 24.710938 111.675781 26.402344 114.433594 26.402344 L 116.84375 26.402344 L 116.84375 23.390625 Z M 115.3125 23.390625 " fill-opacity="1" fill-rule="nonzero"/><path fill="#ffffff" d="M 129.359375 13.886719 L 129.011719 15.070312 C 127.921875 14.117188 126.507812 13.539062 124.882812 13.539062 C 121.128906 13.539062 118.324219 16.367188 118.324219 20.144531 C 118.324219 23.921875 121.128906 26.773438 124.882812 26.773438 C 126.484375 26.773438 127.875 26.21875 128.941406 25.265625 L 129.242188 26.402344 L 131.882812 26.402344 L 131.882812 13.886719 Z M 125.164062 23.574219 C 123.191406 23.574219 121.753906 22.089844 121.753906 20.144531 C 121.753906 18.171875 123.191406 16.710938 125.164062 16.710938 C 127.132812 16.710938 128.570312 18.171875 128.570312 20.144531 C 128.570312 22.113281 127.132812 23.574219 125.164062 23.574219 Z M 125.164062 23.574219 " fill-opacity="1" fill-rule="nonzero"/><path fill="#ffffff" d="M 149.378906 13.605469 C 147.78125 13.605469 146.367188 14.394531 145.507812 15.601562 C 144.765625 14.347656 143.46875 13.605469 141.871094 13.605469 C 140.386719 13.605469 139.019531 14.328125 138.136719 15.4375 L 137.511719 13.886719 L 135.148438 13.886719 L 135.148438 26.402344 L 138.53125 26.402344 L 138.53125 19.636719 C 138.53125 17.6875 139.433594 16.574219 140.964844 16.574219 C 142.171875 16.574219 142.820312 17.457031 142.820312 19.125 L 142.820312 26.402344 L 146.113281 26.402344 L 146.113281 19.636719 C 146.113281 17.6875 147.015625 16.574219 148.519531 16.574219 C 149.75 16.574219 150.398438 17.457031 150.398438 19.125 L 150.398438 26.402344 L 153.785156 26.402344 L 153.785156 18.566406 C 153.785156 15.625 151.976562 13.605469 149.378906 13.605469 Z M 149.378906 13.605469 " fill-opacity="1" fill-rule="nonzero"/><path fill="#ffffff" d="M 162.816406 26.773438 C 166.6875 26.773438 169.585938 23.921875 169.585938 20.144531 C 169.585938 16.367188 166.6875 13.539062 162.816406 13.539062 C 158.949219 13.539062 156.050781 16.367188 156.050781 20.144531 C 156.050781 23.921875 158.949219 26.773438 162.816406 26.773438 Z M 162.816406 23.574219 C 160.871094 23.574219 159.480469 22.183594 159.480469 20.144531 C 159.480469 18.125 160.871094 16.710938 162.816406 16.710938 C 164.765625 16.710938 166.15625 18.125 166.15625 20.144531 C 166.15625 22.183594 164.765625 23.574219 162.816406 23.574219 Z M 162.816406 23.574219 " fill-opacity="1" fill-rule="nonzero"/><path fill="#ffffff" d="M 180.660156 13.886719 L 177.53125 21.601562 L 174.195312 13.886719 L 170.511719 13.886719 L 175.816406 25.453125 L 175.769531 25.542969 C 175.003906 27.445312 174.589844 27.882812 172.941406 27.882812 L 171.785156 27.882812 L 171.785156 30.921875 L 173.175781 30.921875 C 175.980469 30.921875 177.300781 29.648438 178.808594 26.238281 L 184.253906 13.886719 Z M 180.660156 13.886719 " fill-opacity="1" fill-rule="nonzero"/><path fill="#ffffff" d="M 191.667969 26.773438 C 195.214844 26.773438 197.554688 24.503906 197.554688 21.117188 L 197.554688 13.886719 L 194.171875 13.886719 L 194.171875 20.746094 C 194.171875 22.507812 193.246094 23.574219 191.667969 23.574219 C 190.117188 23.574219 189.164062 22.53125 189.164062 20.746094 L 189.164062 13.886719 L 185.78125 13.886719 L 185.78125 21.117188 C 185.78125 24.503906 188.144531 26.773438 191.667969 26.773438 Z M 191.667969 26.773438 " fill-opacity="1" fill-rule="nonzero"/><path fill="#ffffff" d="M 209.28125 13.886719 L 206.152344 21.601562 L 202.8125 13.886719 L 199.128906 13.886719 L 204.4375 25.453125 L 204.390625 25.542969 C 203.625 27.445312 203.207031 27.882812 201.5625 27.882812 L 200.402344 27.882812 L 200.402344 30.921875 L 201.792969 30.921875 C 204.597656 30.921875 205.917969 29.648438 207.425781 26.238281 L 212.875 13.886719 Z M 209.28125 13.886719 " fill-opacity="1" fill-rule="nonzero"/><path fill="#ffffff" d="M 99.859375 47.167969 L 97.359375 30.945312 L 93.835938 30.945312 L 89.429688 40.910156 L 85.027344 30.945312 L 81.527344 30.945312 L 78.976562 47.167969 L 82.546875 47.167969 L 84.148438 36.601562 L 88.992188 47.144531 L 89.847656 47.144531 L 94.691406 36.601562 L 96.289062 47.167969 Z M 99.859375 47.167969 " fill-opacity="1" fill-rule="nonzero"/><path fill="#ffffff" d="M 112.558594 34.652344 L 112.210938 35.835938 C 111.121094 34.882812 109.707031 34.304688 108.082031 34.304688 C 104.328125 34.304688 101.523438 37.132812 101.523438 40.910156 C 101.523438 44.6875 104.328125 47.539062 108.082031 47.539062 C 109.683594 47.539062 111.074219 46.984375 112.140625 46.03125 L 112.441406 47.167969 L 115.082031 47.167969 L 115.082031 34.652344 Z M 108.363281 44.339844 C 106.390625 44.339844 104.953125 42.859375 104.953125 40.910156 C 104.953125 38.941406 106.390625 37.480469 108.363281 37.480469 C 110.332031 37.480469 111.769531 38.941406 111.769531 40.910156 C 111.769531 42.882812 110.332031 44.339844 108.363281 44.339844 Z M 108.363281 44.339844 " fill-opacity="1" fill-rule="nonzero"/><path fill="#ffffff" d="M 124.746094 34.582031 C 123.125 34.582031 122.011719 35.09375 121.109375 36.207031 L 120.503906 34.652344 L 118.347656 34.652344 L 118.347656 47.167969 L 121.734375 47.167969 L 121.734375 40.679688 C 121.734375 38.640625 122.472656 37.78125 124.375 37.78125 L 125.859375 37.78125 L 125.859375 34.582031 Z M 124.746094 34.582031 " fill-opacity="1" fill-rule="nonzero"/><path fill="#ffffff" d="M 139.253906 47.167969 L 134.570312 40.632812 L 138.8125 34.652344 L 134.917969 34.652344 L 131.164062 40.214844 L 131.164062 30.15625 L 127.78125 30.15625 L 127.78125 47.167969 L 131.164062 47.167969 L 131.164062 41.1875 L 135.148438 47.167969 Z M 139.253906 47.167969 " fill-opacity="1" fill-rule="nonzero"/><path fill="#ffffff" d="M 152.925781 40.886719 C 152.925781 37.269531 150.28125 34.304688 146.433594 34.304688 C 142.726562 34.304688 139.945312 37.15625 139.945312 40.910156 C 139.945312 44.664062 142.75 47.539062 146.433594 47.539062 C 149.355469 47.539062 151.742188 45.800781 152.644531 43.066406 L 149.101562 43.066406 C 148.589844 43.972656 147.617188 44.527344 146.433594 44.527344 C 144.789062 44.527344 143.675781 43.574219 143.375 41.859375 L 152.855469 41.859375 C 152.902344 41.535156 152.925781 41.210938 152.925781 40.886719 Z M 146.433594 37.203125 C 147.964844 37.203125 149.054688 38.035156 149.539062 39.566406 L 143.46875 39.566406 C 143.863281 38.082031 144.929688 37.203125 146.433594 37.203125 Z M 146.433594 37.203125 " fill-opacity="1" fill-rule="nonzero"/><path fill="#ffffff" d="M 161.449219 44.15625 C 160.199219 44.15625 159.503906 43.460938 159.503906 42.253906 L 159.503906 37.386719 L 162.910156 37.386719 L 162.910156 34.652344 L 159.457031 34.652344 L 159.457031 31.410156 L 158.808594 31.410156 L 153.871094 36.644531 L 153.871094 37.386719 L 156.121094 37.386719 L 156.121094 42.71875 C 156.121094 45.476562 157.8125 47.167969 160.570312 47.167969 L 162.980469 47.167969 L 162.980469 44.15625 Z M 161.449219 44.15625 " fill-opacity="1" fill-rule="nonzero"/></svg>